<svg viewBox="0 0 500 480" xmlns="http://www.w3.org/2000/svg" role="img">
<title>Doc.Azuz and Juju the panda</title>

<g transform="translate(90,-90)">

<g transform="translate(200,340)">
<path d="M -58 15 Q -68 55 -50 95 Q -22 106 0 106 Q 22 106 50 95 Q 68 55 58 15 Q 58 5 0 0 Q -58 5 -58 15 Z" fill="#FFFFFF" stroke="#D8D0BC" stroke-width="1.5"/>
<path d="M -18 3 Q -22 40 -22 106 L -6 106 Q -4 40 -4 3 Z" fill="#9FC4D6"/>
<path d="M 18 3 Q 22 40 22 106 L 6 106 Q 4 40 4 3 Z" fill="#9FC4D6"/>
<rect x="14" y="30" width="16" height="12" rx="2" fill="#FFFFFF" stroke="#D8D0BC" stroke-width="1"/>
<line x1="22" y1="33" x2="22" y2="39" stroke="#B0473A" stroke-width="1.4"/>
<line x1="18" y1="36" x2="26" y2="36" stroke="#B0473A" stroke-width="1.4"/>

<circle cx="0" cy="30" r="19" fill="#E8899A" opacity="0.9"/>
<circle cx="0" cy="30" r="19" fill="none" stroke="#D8D0BC" stroke-width="1"/>
<path d="M -8 22 Q -8 34 0 34 Q 8 34 8 22" stroke="#FFFFFF" stroke-width="2.4" fill="none" stroke-linecap="round"/>
<path d="M 0 38 Q 40 55 66 22" stroke="#F1EEE4" stroke-width="4" fill="none" stroke-linecap="round"/>
<circle cx="70" cy="18" r="5" fill="#F1EEE4" stroke="#D8D0BC" stroke-width="1"/>

<ellipse cx="-52" cy="55" rx="16" ry="34" fill="#FFFFFF" stroke="#D8D0BC" stroke-width="1.2"/>
<ellipse cx="52" cy="45" rx="16" ry="30" fill="#FFFFFF" stroke="#D8D0BC" stroke-width="1.2" transform="rotate(-4 52 45)"/>
<circle cx="-52" cy="88" r="12" fill="#D9A876"/>
<circle cx="58" cy="70" r="12" fill="#D9A876"/>

<circle cx="0" cy="-62" r="65" fill="#D9A876"/>

<path d="M -65 -62 A 65 65 0 0 1 65 -62 Q 65 -95 34 -108 Q 4 -117 0 -117 Q -4 -117 -34 -108 Q -65 -95 -65 -62 Z" fill="#2B241E"/>
<path d="M -40 -102 Q -20 -110 0 -108" stroke="#3E362E" stroke-width="3" fill="none" stroke-linecap="round" opacity="0.6"/>
<path d="M 0 -108 Q 20 -110 40 -102" stroke="#3E362E" stroke-width="3" fill="none" stroke-linecap="round" opacity="0.6"/>

<ellipse cx="-21" cy="-54" rx="13.5" ry="16.5" fill="#3A2A22"/>
<ellipse cx="21" cy="-54" rx="13.5" ry="16.5" fill="#3A2A22"/>
<circle cx="-15.5" cy="-61.5" r="4.5" fill="#FFFDF6"/>
<circle cx="26.5" cy="-61.5" r="4.5" fill="#FFFDF6"/>
<circle cx="-25" cy="-47" r="2.2" fill="#FFFDF6" opacity="0.85"/>
<circle cx="19" cy="-47" r="2.2" fill="#FFFDF6" opacity="0.85"/>
<path d="M -1 -38 Q -4 -28 -1 -24 Q 2 -22 5 -24" stroke="#B5794E" stroke-width="1.7" fill="none" stroke-linecap="round" stroke-linejoin="round"/>
<circle cx="-35" cy="-22" r="6.5" fill="#B0473A" opacity="0.3"/>
<circle cx="39" cy="-22" r="6.5" fill="#B0473A" opacity="0.3"/>

<path d="M -10 -12 Q -10 -2 0 0 Q 10 -2 10 -12 Q 6 -6 0 -6 Q -6 -6 -10 -12 Z" fill="#8A3E3E"/>
<path d="M -7 -9 Q 0 -5 7 -9" stroke="#FFFDF6" stroke-width="1.3" fill="none" stroke-linecap="round"/>

<path d="M -3 2 Q 0 5 3 2" stroke="#B5794E" stroke-width="1.1" fill="none" stroke-linecap="round" opacity="0.6"/>
<path d="M -40 -18 Q -20 6 0 8 Q 20 6 40 -18" stroke="#B5794E" stroke-width="2" fill="none" stroke-linecap="round" opacity="0.28"/>
</g>

<g transform="translate(80,395)">
<ellipse cx="-26" cy="14" rx="14" ry="10" fill="#FFFFFF" stroke="#2B241E" stroke-width="1.6"/>
<ellipse cx="26" cy="14" rx="14" ry="10" fill="#FFFFFF" stroke="#2B241E" stroke-width="1.6"/>
<ellipse cx="0" cy="-4" rx="44" ry="38" fill="#FFFFFF" stroke="#2B241E" stroke-width="2"/>
<ellipse cx="-36" cy="-32" rx="12" ry="13" fill="#2B241E"/>
<ellipse cx="36" cy="-32" rx="12" ry="13" fill="#2B241E"/>
<ellipse cx="-36" cy="-32" rx="6" ry="6.5" fill="#5A5045"/>
<ellipse cx="36" cy="-32" rx="6" ry="6.5" fill="#5A5045"/>
<ellipse cx="-15" cy="-16" rx="13" ry="11" fill="#2B241E"/>
<ellipse cx="15" cy="-16" rx="13" ry="11" fill="#2B241E"/>
<circle cx="-12" cy="-18" r="4.2" fill="#1A120C"/>
<circle cx="12" cy="-18" r="4.2" fill="#1A120C"/>
<circle cx="-10" cy="-20" r="1.5" fill="#FFFDF6"/>
<circle cx="14" cy="-20" r="1.5" fill="#FFFDF6"/>
<ellipse cx="0" cy="-4" rx="8" ry="5.5" fill="#2B241E"/>
<path d="M -3 -2 Q 0 2 3 -2" stroke="#FFFDF6" stroke-width="1.1" fill="none" stroke-linecap="round"/>
<ellipse cx="-22" cy="-4" rx="4.5" ry="3" fill="#F2A8B8" opacity="0.6"/>
<ellipse cx="22" cy="-4" rx="4.5" ry="3" fill="#F2A8B8" opacity="0.6"/>
<ellipse cx="-24" cy="24" rx="10" ry="9" fill="#2B241E"/>
<ellipse cx="24" cy="24" rx="10" ry="9" fill="#2B241E"/>
</g>
<path d="M 90 380 Q 90 340 68 310" stroke="#B48A4C" stroke-width="3" fill="none" stroke-linecap="round"/>
<circle cx="66" cy="308" r="10" fill="#C9C2AE" stroke="#8A857A" stroke-width="1.4"/>
<circle cx="66" cy="308" r="4" fill="#8A857A"/>
</g>
</svg>
